<svg width="37" height="30" viewBox="0 0 37 30" fill="none" xmlns="http://www.w3.org/2000/svg">
<path d="M37 3.55133C35.6385 4.15365 34.1756 4.56072 32.6401 4.74385C34.2075 3.80656 35.411 2.32232 35.9777 0.553868C34.4877 1.43606 32.8575 2.05761 31.1575 2.39168C29.7727 0.919845 27.8 0 25.6166 0C21.4243 0 18.0254 3.39098 18.0254 7.57333C18.0254 8.16699 18.0926 8.74494 18.2219 9.29939C11.9131 8.98345 6.31977 5.96839 2.57569 1.38633C1.92241 2.50488 1.54807 3.80599 1.54807 5.19376C1.54807 7.82135 2.88831 10.1393 4.92505 11.4976C3.71958 11.4599 2.54064 11.1351 1.48665 10.5502C1.48621 10.5819 1.48621 10.6136 1.48621 10.6455C1.48621 14.3149 4.10281 17.376 7.57532 18.0717C6.45749 18.375 5.28497 18.4194 4.14732 18.2015C5.11323 21.2104 7.9167 23.3999 11.2383 23.4612C8.64037 25.4923 5.36717 26.7032 1.81083 26.7032C1.19802 26.7032 0.593879 26.6673 0 26.5973C3.35934 28.7462 7.34941 30 11.6362 30C25.5989 30 33.2341 18.4596 33.2341 8.45164C33.2341 8.12316 33.2269 7.79655 33.2121 7.47181C34.6982 6.39996 35.9809 5.07236 37 3.55133Z" fill="#55ACEE"/>
</svg>
