<svg width="21" height="21" viewBox="0 0 21 21" fill="none" xmlns="http://www.w3.org/2000/svg">
<path d="M18.1924 9.63001H20.3326C20.3326 4.1403 16.188 0 10.6908 0V2.14024C15.0377 2.14024 18.1924 5.2896 18.1924 9.63001Z" fill="#F27420"/>
<path d="M10.7015 6.42061C12.952 6.42061 13.9119 7.38051 13.9119 9.63097H16.0521C16.0521 6.17983 14.1526 4.28037 10.7015 4.28037V6.42061ZM14.3635 12.2453C14.1578 12.0584 13.8876 11.9587 13.6099 11.9673C13.3321 11.9759 13.0686 12.0921 12.8749 12.2913L10.3141 14.9249C9.69773 14.8071 8.45853 14.4208 7.18295 13.1485C5.90737 11.8718 5.52105 10.6294 5.40655 10.0173L8.03798 7.45542C8.23746 7.26186 8.35381 6.99828 8.3624 6.72047C8.37098 6.44265 8.27114 6.17239 8.08399 5.96688L4.1299 1.61898C3.94267 1.41283 3.68246 1.28778 3.40452 1.2704C3.12658 1.25302 2.85281 1.34466 2.64136 1.52588L0.319198 3.51737C0.134186 3.70306 0.0237583 3.95018 0.0088627 4.21188C-0.00718911 4.47941 -0.313243 10.8167 4.60075 15.7328C8.88765 20.0186 14.2575 20.3322 15.7364 20.3322C15.9526 20.3322 16.0853 20.3258 16.1206 20.3236C16.3823 20.309 16.6293 20.198 16.814 20.0122L18.8045 17.689C18.9858 17.4777 19.0776 17.204 19.0605 16.926C19.0433 16.6481 18.9184 16.3878 18.7124 16.2004L14.3635 12.2453Z" fill="#F27420"/>
</svg>
