<svg width="34" height="34" viewBox="0 0 34 34" fill="none" xmlns="http://www.w3.org/2000/svg">
<path d="M31.7187 2.35627C34.3776 5.11803 33.8334 8.05178 33.8334 16.9644C33.8334 24.3657 35.1248 31.7854 28.3663 33.5321C26.2558 34.0749 7.55654 34.0749 5.44893 33.5293C2.63501 32.8033 0.345528 30.5208 0.0325546 26.541C-0.0111465 25.9856 -0.0111465 7.95309 0.0339661 7.38636C0.366673 3.14716 2.97618 0.70401 6.41463 0.209178C7.20269 0.0949859 7.36058 0.0611512 11.4038 0.0541023C25.7455 0.0611512 28.8893 -0.577479 31.7187 2.35627Z" fill="url(#paint0_linear)"/>
<path d="M16.9189 4.47934C22.0378 4.47934 26.8987 4.02398 28.7554 8.78904C29.5223 10.7571 29.411 13.313 29.411 16.9728C29.411 20.1843 29.5139 23.2026 28.7554 25.1552C26.903 29.923 22.0026 29.4663 16.9217 29.4663C12.0199 29.4663 6.96586 29.9766 5.08663 25.1552C4.3183 23.1674 4.43108 20.6495 4.43108 16.9728C4.43108 12.0921 4.16181 8.94129 6.52883 6.57568C8.92546 4.17906 12.1665 4.47934 16.9245 4.47934H16.9189ZM18.0383 6.73076C7.3606 6.71384 6.00158 5.52681 6.75158 22.017C7.01802 27.8492 11.4588 27.2092 16.9175 27.2092C26.8705 27.2092 27.1567 26.9244 27.1567 16.9672C27.1567 6.89429 26.3672 6.7364 18.0383 6.72794V6.73076ZM10.2506 8.80454C11.0782 8.80454 11.7492 9.4756 11.7492 10.3031C11.7492 11.1307 11.0782 11.8017 10.2506 11.8017C9.42311 11.8017 8.75205 11.1307 8.75205 10.3031C8.75205 9.4756 9.42311 8.80454 10.2506 8.80454ZM16.9189 10.5569C20.4617 10.5569 23.3334 13.43 23.3334 16.9728C23.3334 20.5156 20.4617 23.3873 16.9189 23.3873C13.3761 23.3873 10.5058 20.5156 10.5058 16.9728C10.5058 13.43 13.3761 10.5569 16.9189 10.5569ZM16.9189 12.8083C11.4137 12.8083 11.4067 21.1373 16.9189 21.1373C22.4227 21.1373 22.4311 12.8083 16.9189 12.8083Z" fill="white"/>
<defs>
<linearGradient id="paint0_linear" x1="31.6539" y1="31.7277" x2="0.2081" y2="4.51179" gradientUnits="userSpaceOnUse">
<stop stop-color="#FFDD55"/>
<stop offset="0.5" stop-color="#FF543E"/>
<stop offset="1" stop-color="#C837AB"/>
</linearGradient>
</defs>
</svg>
