<svg width="28" height="36" viewBox="0 0 28 36" fill="none" xmlns="http://www.w3.org/2000/svg">
<path d="M13.7898 8.39795C12.8235 8.39795 11.8788 8.68451 11.0753 9.22139C10.2718 9.75827 9.64557 10.5214 9.27577 11.4142C8.90596 12.307 8.8092 13.2894 8.99772 14.2372C9.18625 15.1849 9.6516 16.0555 10.3349 16.7389C11.0182 17.4222 11.8888 17.8875 12.8366 18.0761C13.7844 18.2646 14.7668 18.1678 15.6596 17.798C16.5524 17.4282 17.3155 16.802 17.8524 15.9985C18.3893 15.195 18.6758 14.2503 18.6758 13.2839C18.6744 11.9885 18.1591 10.7466 17.2431 9.83065C16.3271 8.91467 15.0852 8.39942 13.7898 8.39795ZM13.7898 15.7269C13.3067 15.7269 12.8343 15.5837 12.4326 15.3152C12.0308 15.0468 11.7177 14.6652 11.5328 14.2188C11.3479 13.7724 11.2995 13.2812 11.3938 12.8073C11.488 12.3334 11.7207 11.8981 12.0624 11.5565C12.404 11.2148 12.8393 10.9822 13.3132 10.8879C13.7871 10.7936 14.2783 10.842 14.7247 11.0269C15.1711 11.2118 15.5527 11.5249 15.8211 11.9267C16.0896 12.3284 16.2328 12.8008 16.2328 13.2839C16.2321 13.9316 15.9745 14.5526 15.5165 15.0106C15.0585 15.4686 14.4375 15.7262 13.7898 15.7269Z" fill="white"/>
<path d="M13.5804 33.2634L13.7899 33.585L13.9994 33.2634L23.0779 19.3269C25.9213 14.9619 25.3117 9.12224 21.6281 5.43847L21.4513 5.61524L21.6281 5.43846C20.5988 4.40912 19.3768 3.5926 18.0319 3.03553C16.687 2.47845 15.2456 2.19172 13.7899 2.19172C12.3342 2.19172 10.8928 2.47845 9.5479 3.03553C8.20303 3.5926 6.98105 4.40912 5.95173 5.43846L6.12851 5.61524L5.95173 5.43847C2.26812 9.12224 1.65846 14.9619 4.50187 19.3269L4.70545 19.1943L4.50187 19.3269L13.5804 33.2634ZM14.4674 0.267582C17.6838 0.434792 20.7243 1.78749 23.002 4.06461C25.1147 6.1774 26.437 8.95223 26.7473 11.924C27.0575 14.8958 26.3367 17.8839 24.7058 20.3875L15.4751 34.5578C15.2924 34.8383 15.0425 35.0687 14.7483 35.2282C14.454 35.3877 14.1246 35.4713 13.7899 35.4713C13.4551 35.4713 13.1257 35.3877 12.8315 35.2282C12.5372 35.0687 12.2874 34.8383 12.1047 34.5579L2.87421 20.3875C1.11657 17.6886 0.420937 14.4344 0.921573 11.2528C1.42221 8.0712 3.08363 5.18782 5.58516 3.15916C8.0867 1.1305 11.251 0.100371 14.4674 0.267582Z" fill="white" stroke="#021A47" stroke-width="0.5"/>
</svg>
