<svg width="35" height="35" viewBox="0 0 35 35" fill="none" xmlns="http://www.w3.org/2000/svg">
<path d="M27.1093 21.2683C26.4064 20.5365 25.5586 20.1452 24.66 20.1452C23.7687 20.1452 22.9137 20.5292 22.1818 21.2611L19.892 23.5437C19.7036 23.4422 19.5152 23.348 19.334 23.2538C19.0731 23.1234 18.8268 23.0002 18.6166 22.8698C16.4717 21.5075 14.5224 19.7321 12.6529 17.435C11.7471 16.2901 11.1384 15.3264 10.6964 14.3481C11.2906 13.8046 11.8413 13.2394 12.3775 12.696C12.5804 12.4931 12.7833 12.2829 12.9862 12.08C14.508 10.5583 14.508 8.58729 12.9862 7.06557L11.008 5.08732C10.7833 4.86269 10.5515 4.63081 10.3341 4.39892C9.8993 3.94965 9.44278 3.48589 8.97177 3.05111C8.26888 2.35546 7.42831 1.9859 6.54426 1.9859C5.6602 1.9859 4.80514 2.35546 4.08051 3.05111C4.07326 3.05836 4.07326 3.05836 4.06602 3.0656L1.60227 5.55109C0.67474 6.47862 0.145759 7.60904 0.0298175 8.92062C-0.144094 11.0365 0.479089 13.0075 0.957346 14.2974C2.13125 17.464 3.88486 20.3988 6.50078 23.5437C9.67466 27.3335 13.4935 30.3262 17.8558 32.4349C19.5224 33.2248 21.747 34.1595 24.2325 34.319C24.3847 34.3262 24.5441 34.3335 24.689 34.3335C26.3629 34.3335 27.7687 33.732 28.8702 32.5364C28.8774 32.5219 28.8919 32.5146 28.8991 32.5001C29.2759 32.0436 29.7107 31.6306 30.1672 31.1885C30.4788 30.8915 30.7977 30.5799 31.1093 30.2538C31.8267 29.5074 32.2035 28.6378 32.2035 27.7465C32.2035 26.848 31.8194 25.9857 31.0875 25.2611L27.1093 21.2683ZM29.7035 28.8987C29.6962 28.8987 29.6962 28.906 29.7035 28.8987C29.4209 29.2031 29.131 29.4784 28.8194 29.7828C28.3484 30.232 27.8702 30.703 27.4209 31.232C26.689 32.0146 25.8267 32.3842 24.6963 32.3842C24.5876 32.3842 24.4716 32.3842 24.3629 32.3769C22.2108 32.2393 20.2108 31.3987 18.7108 30.6813C14.6094 28.6958 11.008 25.877 8.01526 22.3046C5.54426 19.3263 3.8921 16.5727 2.79791 13.6162C2.124 11.8119 1.87763 10.4061 1.98632 9.08004C2.05879 8.23222 2.38487 7.52933 2.98631 6.92789L5.45731 4.45689C5.81238 4.12356 6.18919 3.94241 6.55875 3.94241C7.01527 3.94241 7.38483 4.21777 7.61671 4.44965C7.62396 4.45689 7.6312 4.46414 7.63845 4.47139C8.08047 4.88443 8.50076 5.31196 8.94279 5.76848C9.16742 6.00036 9.3993 6.23224 9.63119 6.47137L11.6094 8.44961C12.3775 9.21772 12.3775 9.92786 11.6094 10.696C11.3993 10.9061 11.1964 11.1163 10.9862 11.3192C10.3776 11.9423 9.79785 12.522 9.16742 13.0873C9.15293 13.1017 9.13844 13.109 9.13119 13.1235C8.50801 13.7467 8.62395 14.3554 8.75438 14.7684C8.76163 14.7901 8.76887 14.8119 8.77612 14.8336C9.29061 16.08 10.0152 17.2539 11.1167 18.6524L11.1239 18.6597C13.1239 21.1234 15.2326 23.0437 17.5587 24.5147C17.8558 24.7031 18.1601 24.8553 18.45 25.0002C18.7108 25.1306 18.9572 25.2538 19.1673 25.3843C19.1963 25.3987 19.2253 25.4205 19.2543 25.435C19.5007 25.5582 19.7325 25.6161 19.9717 25.6161C20.5731 25.6161 20.9499 25.2393 21.0731 25.1161L23.5514 22.6379C23.7977 22.3915 24.189 22.0944 24.6456 22.0944C25.0948 22.0944 25.4644 22.377 25.689 22.6234C25.6963 22.6307 25.6963 22.6307 25.7035 22.6379L29.6962 26.6306C30.4426 27.3697 30.4426 28.1306 29.7035 28.8987Z" fill="white"/>
<path d="M18.5297 8.16703C20.4282 8.48586 22.1528 9.38441 23.5296 10.7612C24.9064 12.138 25.7977 13.8626 26.1238 15.7612C26.2035 16.2394 26.6165 16.5728 27.0876 16.5728C27.1455 16.5728 27.1963 16.5655 27.2542 16.5583C27.7905 16.4713 28.1455 15.9641 28.0586 15.4278C27.6673 13.1308 26.5803 11.0366 24.9209 9.37716C23.2615 7.71776 21.1673 6.63081 18.8702 6.23951C18.334 6.15255 17.834 6.50762 17.7398 7.0366C17.6456 7.56558 17.9934 8.08007 18.5297 8.16703Z" fill="white"/>
<path d="M34.2687 15.1452C33.6237 11.3626 31.8411 7.92064 29.102 5.18154C26.3629 2.44243 22.9209 0.659836 19.1384 0.014914C18.6094 -0.0792881 18.1094 0.283028 18.0152 0.812009C17.9282 1.34824 18.2833 1.84823 18.8195 1.94243C22.1963 2.51489 25.276 4.11633 27.7252 6.55834C30.1745 9.00759 31.7687 12.0873 32.3411 15.4641C32.4208 15.9423 32.8339 16.2756 33.3049 16.2756C33.3629 16.2756 33.4136 16.2684 33.4716 16.2612C34.0005 16.1814 34.3629 15.6742 34.2687 15.1452Z" fill="white"/>
</svg>
