<svg width="34" height="34" viewBox="0 0 34 34" fill="none" xmlns="http://www.w3.org/2000/svg">
<path d="M32.1235 34.0001C33.1597 34.0001 34 33.1599 34 32.1236V1.87651C34 0.840038 33.1597 0 32.1235 0H1.87651C0.839905 0 0 0.840038 0 1.87651V32.1236C0 33.1599 0.839905 34.0001 1.87651 34.0001H32.1235Z" fill="#395185"/>
<path d="M23.4593 34.0002V20.8335H27.8789L28.5406 15.7023H23.4593V12.4261C23.4593 10.9405 23.872 9.92805 26.0024 9.92805L28.7196 9.92686V5.33753C28.2495 5.27497 26.6366 5.13525 24.7602 5.13525C20.8425 5.13525 18.1605 7.52654 18.1605 11.9181V15.7023H13.7296V20.8335H18.1605V34.0002H23.4593Z" fill="white"/>
</svg>
