<svg xmlns="http://www.w3.org/2000/svg" width="20.923" height="20.798" viewBox="0 0 20.923 20.798">
  <path id="foo3-green" d="M13.519,26.072A10.423,10.423,0,0,1,8.2,24.618l-.379-.226L3.87,25.427l1.053-3.854-.249-.4a10.462,10.462,0,1,1,19.4-5.551,10.558,10.558,0,0,1-10.555,10.45Zm5.727-7.821c-.311-.158-1.856-.917-2.145-1.019s-.5-.158-.707.158-.809,1.019-1,1.234-.368.238-.679.079a8.544,8.544,0,0,1-4.272-3.735c-.323-.555.323-.515.922-1.715a.582.582,0,0,0-.028-.549c-.079-.158-.707-1.7-.968-2.331-.255-.611-.515-.526-.707-.538s-.39-.011-.6-.011a1.163,1.163,0,0,0-.838.39,3.527,3.527,0,0,0-1.1,2.62A6.15,6.15,0,0,0,8.4,16.082a14.027,14.027,0,0,0,5.365,4.742c1.992.86,2.773.934,3.769.787a3.215,3.215,0,0,0,2.116-1.494,2.625,2.625,0,0,0,.181-1.494c-.068-.139-.277-.223-.589-.371Z" transform="translate(-3.151 -5.274)" fill="#26cc64"/>
</svg>
