<svg xmlns="http://www.w3.org/2000/svg" width="36.5" height="36.32" viewBox="0 0 36.5 36.32">
  <path id="phone" d="M20.479,40a17.372,17.372,0,0,1-8.866-2.424l-.632-.377L4.4,38.925,6.153,32.5l-.415-.66a17.436,17.436,0,1,1,32.34-9.252A17.6,17.6,0,0,1,20.479,40Zm9.545-13.034c-.519-.264-3.094-1.528-3.575-1.7s-.83-.264-1.179.264-1.349,1.7-1.66,2.056-.613.4-1.132.132c-3.075-1.537-5.093-2.745-7.121-6.225-.538-.924.538-.858,1.537-2.858a.97.97,0,0,0-.047-.915c-.132-.264-1.179-2.839-1.613-3.886-.424-1.019-.858-.877-1.179-.9-.3-.019-.651-.019-1-.019a1.938,1.938,0,0,0-1.4.651,5.879,5.879,0,0,0-1.83,4.367c0,2.575,1.877,5.065,2.131,5.414s3.688,5.631,8.941,7.9c3.32,1.434,4.621,1.556,6.281,1.311,1.009-.151,3.094-1.264,3.527-2.49a4.376,4.376,0,0,0,.3-2.49C30.891,27.353,30.542,27.221,30.024,26.966Z" transform="translate(-2.328 -4.43)" fill="none" stroke="#fff" stroke-width="1.5"/>
</svg>
